<?xml version="1.0" standalone="no"?>
<!DOCTYPE svg PUBLIC "-//W3C//DTD SVG 20010904//EN"
 "http://www.w3.org/TR/2001/REC-SVG-20010904/DTD/svg10.dtd">
<svg version="1.0" xmlns="http://www.w3.org/2000/svg"
 width="260.000000pt" height="260.000000pt" viewBox="0 0 260.000000 260.000000"
 preserveAspectRatio="xMidYMid meet">
<metadata>
Created by potrace 1.11, written by Peter Selinger 2001-2013
</metadata>
<g transform="translate(0.000000,260.000000) scale(0.100000,-0.100000)"
fill="#000000" stroke="none">
<path d="M0 1300 l0 -1300 1300 0 1300 0 0 1300 0 1300 -1300 0 -1300 0 0
-1300z m2157 920 c43 -26 56 -55 55 -120 -1 -70 -31 -167 -92 -296 -64 -137
-128 -233 -209 -316 l-69 -70 -5 -176 c-5 -199 -24 -290 -78 -393 -64 -119
-230 -239 -354 -254 -44 -6 -70 -3 -126 15 -97 32 -189 31 -254 -1 -40 -20
-56 -37 -89 -93 -57 -95 -141 -181 -193 -196 -36 -11 -46 -10 -79 6 -48 24
-70 67 -84 164 -6 41 -29 129 -50 195 -21 66 -47 167 -59 225 -44 227 -38 341
24 409 30 32 39 36 84 36 41 0 55 -5 80 -29 l30 -29 36 75 c48 100 53 158 26
271 -21 86 -21 90 -4 125 23 48 78 76 128 66 44 -8 92 -53 124 -115 l22 -44
-6 126 -7 126 30 34 c27 30 36 34 80 34 59 0 92 -25 124 -90 l19 -40 -6 35
c-23 140 -13 179 53 207 108 45 209 -83 220 -280 l5 -88 20 33 c46 75 60 137
58 256 -1 132 10 165 66 189 48 20 89 10 131 -29 39 -38 72 -134 72 -212 l1
-51 18 35 c10 19 31 72 46 118 28 85 62 137 99 152 36 15 80 11 113 -10z"/>
<path d="M2066 2142 c-3 -5 -20 -50 -37 -98 -68 -193 -154 -337 -261 -440 -65
-62 -154 -121 -165 -110 -10 9 31 88 94 185 31 46 64 109 75 140 40 111 8 316
-48 316 -18 0 -19 -9 -20 -120 -1 -140 -15 -187 -93 -323 -51 -89 -101 -200
-101 -226 0 -16 -30 -27 -128 -50 l-63 -15 7 32 c3 18 20 68 36 112 79 213 80
216 76 290 -7 103 -56 203 -94 188 -12 -4 -14 -14 -9 -42 3 -20 9 -81 11 -136
5 -93 4 -105 -25 -182 -17 -46 -38 -111 -46 -145 -9 -35 -21 -80 -26 -100 -8
-30 -19 -42 -64 -66 -50 -27 -55 -28 -55 -11 0 10 12 49 26 86 51 131 42 409
-15 467 -35 35 -40 13 -34 -162 5 -157 4 -173 -20 -262 -14 -52 -28 -124 -32
-158 -5 -56 -12 -70 -51 -119 -25 -31 -74 -115 -109 -187 -35 -73 -74 -141
-86 -151 l-22 -20 7 115 c10 157 27 225 93 363 48 102 57 129 61 191 6 90 -16
171 -57 215 -55 59 -72 33 -46 -75 29 -122 19 -189 -48 -331 -63 -131 -77
-204 -77 -392 l0 -94 -26 24 c-15 13 -35 42 -45 64 -20 45 -39 168 -39 253 0
76 -8 102 -31 102 -31 0 -44 -39 -43 -135 1 -114 33 -281 83 -432 22 -65 42
-145 46 -178 9 -71 29 -125 47 -125 20 0 110 102 154 176 47 79 96 115 194
140 73 19 144 13 235 -17 42 -15 72 -19 102 -14 104 15 244 121 288 218 49
106 58 161 61 364 l2 192 72 67 c89 84 172 208 233 346 54 126 70 179 65 234
-2 31 -7 40 -25 42 -11 2 -24 -1 -27 -6z m-406 -889 c0 -227 -28 -316 -127
-403 -88 -78 -168 -98 -266 -64 -34 12 -74 15 -150 12 -89 -3 -110 -7 -156
-31 l-54 -28 6 57 c4 36 20 87 46 141 l40 84 38 -25 c69 -45 159 -69 243 -64
91 6 139 28 199 93 70 76 111 188 111 305 0 39 4 49 23 58 46 22 47 21 47
-135z m-180 49 c0 -143 -102 -271 -216 -272 -42 0 -157 36 -183 58 l-21 17 40
46 c57 66 163 135 261 169 116 41 119 40 119 -18z"/>
<path d="M1310 1200 c-30 -16 -66 -38 -80 -49 l-25 -19 27 -7 c55 -14 119 26
141 88 8 23 2 21 -63 -13z"/>
</g>
</svg>
